<?xml version="1.0" standalone="no"?>
<!DOCTYPE svg PUBLIC "-//W3C//DTD SVG 20010904//EN"
 "http://www.w3.org/TR/2001/REC-SVG-20010904/DTD/svg10.dtd">
<svg version="1.0" xmlns="http://www.w3.org/2000/svg"
 width="312.000000pt" height="312.000000pt" viewBox="0 0 312.000000 312.000000"
 preserveAspectRatio="xMidYMid meet">
<metadata>
Created by potrace 1.11, written by Peter Selinger 2001-2013
</metadata>
<g transform="translate(0.000000,312.000000) scale(0.100000,-0.100000)"
fill="#000000" stroke="none">
<path d="M0 1560 l0 -1560 1560 0 1560 0 0 1560 0 1560 -1560 0 -1560 0 0
-1560z m1515 875 c0 -33 5 -63 10 -67 6 -4 34 -8 64 -8 l54 0 -6 -65 -6 -65
33 0 c18 0 48 -3 66 -6 l32 -7 -7 -55 c-7 -65 -1 -72 66 -72 l46 0 7 53 c3 28
6 75 6 102 0 92 3 95 77 95 l66 0 -8 -129 -7 -128 56 -5 c31 -3 59 -8 62 -11
4 -4 3 -62 -2 -129 l-9 -123 -50 0 c-27 0 -116 4 -197 9 l-147 8 0 -62 c0 -34
-1 -63 -3 -65 -2 -2 -57 -1 -123 3 -134 8 -133 7 -120 88 6 39 9 43 38 46 18
2 -65 9 -183 16 -118 8 -221 15 -227 18 -13 3 -12 64 3 209 l5 50 62 0 c59 0
62 1 64 25 1 14 5 69 8 123 l7 97 64 0 64 0 0 44 c0 73 4 77 74 74 l61 -3 0
-60z m1108 -1132 c-7 -2 -19 -2 -25 0 -7 3 -2 5 12 5 14 0 19 -2 13 -5z m-70
-10 c-7 -2 -19 -2 -25 0 -7 3 -2 5 12 5 14 0 19 -2 13 -5z m-76 -9 c-3 -3 -12
-4 -19 -1 -8 3 -5 6 6 6 11 1 17 -2 13 -5z m-52 -14 c7 -11 75 -513 70 -518
-4 -5 -255 -35 -259 -31 -2 2 -14 76 -26 164 -11 88 -27 203 -34 255 -8 52
-12 98 -10 101 4 8 61 17 149 25 33 3 62 7 64 10 8 8 40 4 46 -6z m-1482 -127
c57 -12 67 -18 68 -36 0 -12 2 -34 4 -49 4 -33 4 -33 -110 -17 l-80 11 -177
-91 c-98 -50 -179 -91 -181 -91 -5 0 -30 111 -25 114 1 2 82 45 178 95 194
101 175 97 323 64z m148 -727 c52 -19 101 -37 110 -41 10 -4 19 2 27 19 10 22
16 24 54 20 91 -11 90 -10 72 -47 -9 -17 -18 -33 -19 -35 -2 -2 -28 6 -60 17
l-57 20 -20 -47 c-11 -26 -22 -49 -24 -51 -4 -4 -201 65 -222 78 -10 6 -9 17
7 54 11 26 24 47 29 47 5 0 52 -15 103 -34z m744 -11 c160 -13 155 -11 155
-55 0 -21 -3 -41 -7 -43 -5 -2 -63 0 -130 6 l-122 10 6 43 c5 36 3 43 -13 47
-11 2 -5 3 11 1 17 -2 62 -6 100 -9z"/>
<path d="M1386 2327 c-3 -23 -8 -79 -11 -124 -6 -82 -6 -83 17 -83 13 -1 39
-3 59 -6 l36 -5 6 77 c4 42 7 99 7 126 0 47 0 48 -32 49 -18 0 -43 2 -55 5
-19 3 -22 -2 -27 -39z"/>
<path d="M1608 1833 c18 -2 45 -2 60 0 15 2 0 4 -33 4 -33 0 -45 -2 -27 -4z"/>
</g>
</svg>
